<svg width="288" height="45" viewBox="0 0 288 45" fill="none" xmlns="http://www.w3.org/2000/svg">
<path d="M49.708 36V10.8H52.444L62.128 26.532L60.832 26.496L70.624 10.8H73.18V36H70.372V24.48C70.372 22.32 70.408 20.376 70.48 18.648C70.552 16.92 70.684 15.204 70.876 13.5L71.38 14.508L62.344 28.692H60.4L51.616 14.688L52.012 13.5C52.204 15.108 52.336 16.764 52.408 18.468C52.48 20.148 52.516 22.152 52.516 24.48V36H49.708ZM80.2503 36V17.208H82.9503V36H80.2503ZM81.5823 13.14C80.9103 13.14 80.3943 12.972 80.0343 12.636C79.6983 12.276 79.5303 11.796 79.5303 11.196C79.5303 10.596 79.7103 10.116 80.0703 9.756C80.4303 9.396 80.9343 9.216 81.5823 9.216C82.2303 9.216 82.7343 9.396 83.0943 9.756C83.4543 10.092 83.6343 10.572 83.6343 11.196C83.6343 11.772 83.4543 12.24 83.0943 12.6C82.7343 12.96 82.2303 13.14 81.5823 13.14ZM88.8468 36V17.208H91.5107L91.6188 21.132L91.1868 21.312C91.4268 20.496 91.8948 19.752 92.5908 19.08C93.2868 18.408 94.1148 17.868 95.0748 17.46C96.0588 17.028 97.0668 16.812 98.0988 16.812C99.4908 16.812 100.655 17.088 101.591 17.64C102.527 18.192 103.235 19.044 103.715 20.196C104.195 21.348 104.435 22.812 104.435 24.588V36H101.699V24.732C101.699 23.484 101.531 22.464 101.195 21.672C100.883 20.856 100.391 20.256 99.7188 19.872C99.0468 19.488 98.2188 19.308 97.2348 19.332C96.4188 19.332 95.6628 19.476 94.9668 19.764C94.2708 20.028 93.6708 20.4 93.1668 20.88C92.6628 21.36 92.2668 21.912 91.9788 22.536C91.6908 23.16 91.5468 23.832 91.5468 24.552V36H90.2148C90.0468 36 89.8548 36 89.6388 36C89.4228 36 89.1588 36 88.8468 36ZM110.309 36V17.208H113.009V36H110.309ZM111.641 13.14C110.969 13.14 110.453 12.972 110.093 12.636C109.757 12.276 109.589 11.796 109.589 11.196C109.589 10.596 109.769 10.116 110.129 9.756C110.489 9.396 110.993 9.216 111.641 9.216C112.289 9.216 112.793 9.396 113.153 9.756C113.513 10.092 113.693 10.572 113.693 11.196C113.693 11.772 113.513 12.24 113.153 12.6C112.793 12.96 112.289 13.14 111.641 13.14ZM118.869 36V17.208H121.569L121.641 21.492L121.101 21.672C121.293 20.952 121.605 20.304 122.037 19.728C122.493 19.128 123.033 18.612 123.657 18.18C124.281 17.748 124.965 17.424 125.709 17.208C126.453 16.968 127.233 16.848 128.049 16.848C129.033 16.848 129.909 17.016 130.677 17.352C131.469 17.664 132.129 18.216 132.657 19.008C133.209 19.776 133.629 20.796 133.917 22.068L133.269 21.744L133.521 21.132C133.761 20.58 134.109 20.052 134.565 19.548C135.045 19.02 135.585 18.552 136.185 18.144C136.809 17.736 137.481 17.424 138.201 17.208C138.945 16.968 139.701 16.848 140.469 16.848C141.789 16.848 142.905 17.136 143.817 17.712C144.729 18.264 145.413 19.116 145.869 20.268C146.349 21.42 146.589 22.884 146.589 24.66V36H143.817V24.804C143.817 23.556 143.661 22.536 143.349 21.744C143.037 20.952 142.569 20.364 141.945 19.98C141.345 19.572 140.577 19.368 139.641 19.368C138.825 19.368 138.069 19.512 137.373 19.8C136.701 20.064 136.113 20.448 135.609 20.952C135.129 21.432 134.745 21.984 134.457 22.608C134.193 23.232 134.061 23.904 134.061 24.624V36H131.325V24.768C131.325 23.568 131.157 22.572 130.821 21.78C130.509 20.988 130.041 20.388 129.417 19.98C128.793 19.572 128.025 19.368 127.113 19.368C126.321 19.368 125.589 19.512 124.917 19.8C124.245 20.064 123.657 20.436 123.153 20.916C122.673 21.396 122.289 21.948 122.001 22.572C121.737 23.196 121.605 23.868 121.605 24.588V36H118.869ZM159.05 36.36C157.418 36.36 155.942 35.94 154.622 35.1C153.302 34.236 152.258 33.072 151.49 31.608C150.722 30.12 150.338 28.44 150.338 26.568C150.338 24.672 150.734 22.992 151.526 21.528C152.318 20.064 153.374 18.912 154.694 18.072C156.038 17.232 157.538 16.812 159.194 16.812C160.178 16.812 161.09 16.956 161.93 17.244C162.77 17.532 163.514 17.94 164.162 18.468C164.834 18.972 165.386 19.572 165.818 20.268C166.274 20.94 166.586 21.672 166.754 22.464L165.962 22.068L166.07 17.208H168.77V36H166.034V31.392L166.754 30.924C166.586 31.644 166.262 32.34 165.782 33.012C165.302 33.66 164.714 34.236 164.018 34.74C163.346 35.244 162.578 35.64 161.714 35.928C160.874 36.216 159.986 36.36 159.05 36.36ZM159.662 33.768C160.91 33.768 162.026 33.468 163.01 32.868C163.994 32.244 164.762 31.392 165.314 30.312C165.89 29.208 166.178 27.96 166.178 26.568C166.178 25.176 165.89 23.94 165.314 22.86C164.762 21.78 163.994 20.928 163.01 20.304C162.026 19.68 160.91 19.368 159.662 19.368C158.39 19.368 157.262 19.68 156.278 20.304C155.318 20.928 154.55 21.78 153.974 22.86C153.422 23.94 153.146 25.176 153.146 26.568C153.146 27.936 153.422 29.172 153.974 30.276C154.526 31.356 155.294 32.208 156.278 32.832C157.262 33.456 158.39 33.768 159.662 33.768ZM174.102 36V9.36H176.802V36H174.102ZM193.286 36V10.8H203.51C204.974 10.8 206.234 11.064 207.29 11.592C208.37 12.096 209.198 12.828 209.774 13.788C210.35 14.724 210.638 15.84 210.638 17.136C210.638 18.528 210.242 19.728 209.45 20.736C208.658 21.72 207.578 22.404 206.21 22.788L206.138 22.104C207.314 22.32 208.334 22.74 209.198 23.364C210.062 23.964 210.734 24.708 211.214 25.596C211.718 26.484 211.97 27.48 211.97 28.584C211.97 29.712 211.778 30.732 211.394 31.644C211.01 32.556 210.458 33.336 209.738 33.984C209.042 34.632 208.19 35.136 207.182 35.496C206.198 35.832 205.094 36 203.87 36H193.286ZM196.094 33.264H203.654C204.734 33.264 205.67 33.084 206.462 32.724C207.278 32.34 207.902 31.8 208.334 31.104C208.79 30.408 209.018 29.604 209.018 28.692C209.018 27.828 208.778 27.072 208.298 26.424C207.842 25.776 207.194 25.272 206.354 24.912C205.538 24.552 204.578 24.372 203.474 24.372H196.094V33.264ZM196.094 21.636H203.294C204.158 21.636 204.926 21.468 205.598 21.132C206.27 20.772 206.798 20.292 207.182 19.692C207.566 19.068 207.758 18.372 207.758 17.604C207.758 16.38 207.338 15.396 206.498 14.652C205.682 13.908 204.53 13.536 203.042 13.536H196.094V21.636ZM224.603 36.36C222.731 36.36 221.063 35.952 219.599 35.136C218.159 34.32 217.031 33.18 216.215 31.716C215.399 30.252 214.991 28.572 214.991 26.676C214.991 25.212 215.219 23.892 215.675 22.716C216.131 21.516 216.767 20.472 217.583 19.584C218.423 18.696 219.419 18.012 220.571 17.532C221.723 17.028 222.971 16.776 224.315 16.776C225.587 16.776 226.739 17.004 227.771 17.46C228.827 17.916 229.727 18.552 230.471 19.368C231.239 20.16 231.815 21.108 232.199 22.212C232.583 23.316 232.751 24.528 232.703 25.848L232.667 27.108H217.007L216.611 24.84H230.615L229.967 25.452V24.588C229.919 23.724 229.667 22.896 229.211 22.104C228.755 21.288 228.107 20.628 227.267 20.124C226.451 19.62 225.467 19.368 224.315 19.368C222.971 19.368 221.807 19.644 220.823 20.196C219.839 20.724 219.083 21.516 218.555 22.572C218.027 23.628 217.763 24.936 217.763 26.496C217.763 27.984 218.051 29.28 218.627 30.384C219.203 31.464 220.019 32.304 221.075 32.904C222.155 33.504 223.451 33.804 224.963 33.804C225.851 33.804 226.727 33.66 227.591 33.372C228.479 33.06 229.451 32.46 230.507 31.572L231.911 33.516C231.359 34.068 230.699 34.56 229.931 34.992C229.163 35.4 228.323 35.736 227.411 36C226.499 36.24 225.563 36.36 224.603 36.36ZM243.882 36.36C242.25 36.36 240.774 35.94 239.454 35.1C238.134 34.236 237.09 33.072 236.322 31.608C235.554 30.12 235.17 28.44 235.17 26.568C235.17 24.672 235.566 22.992 236.358 21.528C237.15 20.064 238.206 18.912 239.526 18.072C240.87 17.232 242.37 16.812 244.026 16.812C245.01 16.812 245.922 16.956 246.762 17.244C247.602 17.532 248.346 17.94 248.994 18.468C249.666 18.972 250.218 19.572 250.65 20.268C251.106 20.94 251.418 21.672 251.586 22.464L250.794 22.068L250.902 17.208H253.602V36H250.866V31.392L251.586 30.924C251.418 31.644 251.094 32.34 250.614 33.012C250.134 33.66 249.546 34.236 248.85 34.74C248.178 35.244 247.41 35.64 246.546 35.928C245.706 36.216 244.818 36.36 243.882 36.36ZM244.494 33.768C245.742 33.768 246.858 33.468 247.842 32.868C248.826 32.244 249.594 31.392 250.146 30.312C250.722 29.208 251.01 27.96 251.01 26.568C251.01 25.176 250.722 23.94 250.146 22.86C249.594 21.78 248.826 20.928 247.842 20.304C246.858 19.68 245.742 19.368 244.494 19.368C243.222 19.368 242.094 19.68 241.11 20.304C240.15 20.928 239.382 21.78 238.806 22.86C238.254 23.94 237.978 25.176 237.978 26.568C237.978 27.936 238.254 29.172 238.806 30.276C239.358 31.356 240.126 32.208 241.11 32.832C242.094 33.456 243.222 33.768 244.494 33.768ZM261.454 36V12.276H264.154V36H261.454ZM257.206 19.8V17.208H268.906V19.8H257.206ZM279.081 36.36C277.473 36.36 276.033 36.06 274.761 35.46C273.489 34.86 272.481 34.068 271.737 33.084L273.645 31.428C274.341 32.268 275.157 32.904 276.093 33.336C277.053 33.768 278.121 33.984 279.297 33.984C279.897 33.984 280.437 33.924 280.917 33.804C281.397 33.66 281.817 33.456 282.177 33.192C282.537 32.928 282.813 32.616 283.005 32.256C283.197 31.896 283.293 31.5 283.293 31.068C283.293 30.276 282.945 29.616 282.249 29.088C281.937 28.872 281.493 28.656 280.917 28.44C280.341 28.2 279.645 27.972 278.829 27.756C277.485 27.372 276.369 26.988 275.481 26.604C274.593 26.196 273.897 25.728 273.393 25.2C273.033 24.768 272.757 24.3 272.565 23.796C272.397 23.292 272.313 22.74 272.313 22.14C272.313 21.372 272.469 20.664 272.781 20.016C273.117 19.368 273.573 18.804 274.149 18.324C274.749 17.82 275.445 17.448 276.237 17.208C277.053 16.944 277.929 16.812 278.865 16.812C279.753 16.812 280.629 16.932 281.493 17.172C282.357 17.412 283.161 17.76 283.905 18.216C284.649 18.672 285.285 19.212 285.813 19.836L284.157 21.636C283.701 21.156 283.197 20.724 282.645 20.34C282.093 19.956 281.505 19.656 280.881 19.44C280.281 19.224 279.657 19.116 279.009 19.116C278.433 19.116 277.893 19.188 277.389 19.332C276.909 19.476 276.489 19.68 276.129 19.944C275.793 20.184 275.529 20.484 275.337 20.844C275.169 21.204 275.085 21.6 275.085 22.032C275.085 22.392 275.157 22.716 275.301 23.004C275.445 23.292 275.649 23.544 275.913 23.76C276.249 24.024 276.717 24.276 277.317 24.516C277.941 24.732 278.709 24.96 279.621 25.2C280.677 25.488 281.565 25.788 282.285 26.1C283.029 26.388 283.641 26.736 284.121 27.144C284.769 27.624 285.225 28.176 285.489 28.8C285.777 29.424 285.921 30.132 285.921 30.924C285.921 31.98 285.621 32.916 285.021 33.732C284.445 34.548 283.641 35.196 282.609 35.676C281.577 36.132 280.401 36.36 279.081 36.36Z" fill="black"/>
<path fill-rule="evenodd" clip-rule="evenodd" d="M30 9H19V20H30V9ZM17 7V22H32V7H17Z" fill="black"/>
<path fill-rule="evenodd" clip-rule="evenodd" d="M30 26H19V37H30V26ZM17 24V39H32V24H17Z" fill="black"/>
<path fill-rule="evenodd" clip-rule="evenodd" d="M13 9H2V20H13V9ZM0 7V22H15V7H0Z" fill="black"/>
<path fill-rule="evenodd" clip-rule="evenodd" d="M13 26H2V37H13V26ZM0 24V39H15V24H0Z" fill="black"/>
</svg>
